<mxfile host="app.diagrams.net" modified="2021-09-23T18:37:43.910Z" agent="5.0 (X11; Linux x86_64) AppleWebKit/537.36 (KHTML, like Gecko) Chrome/93.0.4577.82 Safari/537.36" etag="zcUNv7EitYQynZMODzjM" version="15.3.0" type="github">
  <diagram name="Page-1" id="64c3da0e-402f-94eb-ee01-a36477274f13">
    <mxGraphModel dx="3112" dy="1932" grid="1" gridSize="10" guides="1" tooltips="1" connect="1" arrows="1" fold="1" page="1" pageScale="1" pageWidth="1169" pageHeight="826" background="none" math="0" shadow="0">
      <root>
        <mxCell id="0" />
        <mxCell id="1" parent="0" />
        <mxCell id="2" value="SHIPPING MANAGEMENT SYSTEM" style="whiteSpace=wrap;rounded=1;shadow=1;fillColor=#10739E;strokeColor=none;fontColor=#FFFFFF;fontStyle=1;fontSize=30;" parent="1" vertex="1">
          <mxGeometry x="960" y="-50" width="420" height="150" as="geometry" />
        </mxCell>
        <mxCell id="3" value="COMPANY SHIPPING" style="whiteSpace=wrap;rounded=1;fillColor=#F2931E;strokeColor=none;shadow=1;fontColor=#FFFFFF;fontStyle=1;fontSize=20;" parent="1" vertex="1">
          <mxGeometry x="160" y="180" width="280" height="60" as="geometry" />
        </mxCell>
        <mxCell id="10" value="Partner Managment" style="whiteSpace=wrap;rounded=1;fillColor=#dae8fc;strokeColor=#6c8ebf;shadow=1;fontStyle=1;fontFamily=Helvetica;fontSize=15;" parent="1" vertex="1">
          <mxGeometry x="-150" y="330" width="180" height="60" as="geometry" />
        </mxCell>
        <mxCell id="103" value="" style="edgeStyle=elbowEdgeStyle;elbow=vertical;rounded=0;fontColor=#000000;endArrow=none;endFill=0;strokeWidth=8;strokeColor=#23445D;entryX=1;entryY=0.5;entryDx=0;entryDy=0;exitX=0.5;exitY=1;exitDx=0;exitDy=0;" parent="1" source="3" target="10" edge="1">
          <mxGeometry width="100" height="100" relative="1" as="geometry">
            <mxPoint x="20" y="290" as="sourcePoint" />
            <mxPoint x="120" y="190" as="targetPoint" />
            <Array as="points">
              <mxPoint x="170" y="360" />
            </Array>
          </mxGeometry>
        </mxCell>
        <mxCell id="229" value="" style="edgeStyle=elbowEdgeStyle;elbow=vertical;rounded=0;fontColor=#000000;endArrow=none;endFill=0;strokeWidth=8;strokeColor=#23445D;" parent="1" source="2" target="3" edge="1">
          <mxGeometry width="100" height="100" relative="1" as="geometry">
            <mxPoint x="540" y="140" as="sourcePoint" />
            <mxPoint x="640" y="40" as="targetPoint" />
          </mxGeometry>
        </mxCell>
        <mxCell id="231" value="" style="edgeStyle=elbowEdgeStyle;elbow=vertical;rounded=0;fontColor=#000000;endArrow=none;endFill=0;strokeWidth=8;strokeColor=#23445D;" parent="1" source="2" edge="1">
          <mxGeometry width="100" height="100" relative="1" as="geometry">
            <mxPoint x="560" y="160" as="sourcePoint" />
            <mxPoint x="1170" y="180" as="targetPoint" />
          </mxGeometry>
        </mxCell>
        <mxCell id="234" value="" style="edgeStyle=elbowEdgeStyle;elbow=vertical;rounded=0;fontColor=#000000;endArrow=none;endFill=0;strokeWidth=8;strokeColor=#23445D;entryX=0.5;entryY=0;entryDx=0;entryDy=0;" parent="1" source="2" target="_okTCba526bZoAkwn3fd-258" edge="1">
          <mxGeometry width="100" height="100" relative="1" as="geometry">
            <mxPoint x="590" y="190" as="sourcePoint" />
            <mxPoint x="2080" y="169.99999999999977" as="targetPoint" />
            <Array as="points">
              <mxPoint x="1630" y="140" />
            </Array>
          </mxGeometry>
        </mxCell>
        <mxCell id="_okTCba526bZoAkwn3fd-239" value="Order Management" style="whiteSpace=wrap;rounded=1;fillColor=#dae8fc;strokeColor=#6c8ebf;shadow=1;fontStyle=1;fontFamily=Helvetica;fontSize=15;" vertex="1" parent="1">
          <mxGeometry x="600" y="370" width="120" height="160" as="geometry" />
        </mxCell>
        <mxCell id="_okTCba526bZoAkwn3fd-240" value="" style="edgeStyle=elbowEdgeStyle;elbow=vertical;rounded=0;fontColor=#000000;endArrow=none;endFill=0;strokeWidth=8;strokeColor=#23445D;entryX=0;entryY=0.5;entryDx=0;entryDy=0;" edge="1" parent="1" target="_okTCba526bZoAkwn3fd-239">
          <mxGeometry width="100" height="100" relative="1" as="geometry">
            <mxPoint x="300" y="240" as="sourcePoint" />
            <mxPoint x="690" y="290" as="targetPoint" />
            <Array as="points">
              <mxPoint x="450" y="450" />
            </Array>
          </mxGeometry>
        </mxCell>
        <mxCell id="_okTCba526bZoAkwn3fd-241" value="Shiper Management" style="whiteSpace=wrap;rounded=1;fillColor=#dae8fc;strokeColor=#6c8ebf;shadow=1;fontStyle=1;fontFamily=Helvetica;fontSize=15;" vertex="1" parent="1">
          <mxGeometry x="-150" y="478" width="180" height="60" as="geometry" />
        </mxCell>
        <mxCell id="_okTCba526bZoAkwn3fd-242" value="" style="edgeStyle=elbowEdgeStyle;elbow=vertical;rounded=0;fontColor=#000000;endArrow=none;endFill=0;strokeWidth=8;strokeColor=#23445D;exitX=0.5;exitY=1;exitDx=0;exitDy=0;entryX=1;entryY=0.5;entryDx=0;entryDy=0;" edge="1" parent="1" target="_okTCba526bZoAkwn3fd-241" source="3">
          <mxGeometry width="100" height="100" relative="1" as="geometry">
            <mxPoint x="880" y="380" as="sourcePoint" />
            <mxPoint x="700" y="340" as="targetPoint" />
            <Array as="points">
              <mxPoint x="180" y="508" />
            </Array>
          </mxGeometry>
        </mxCell>
        <mxCell id="_okTCba526bZoAkwn3fd-243" value="Checking &amp; Statistical" style="whiteSpace=wrap;rounded=1;fillColor=#dae8fc;strokeColor=#6c8ebf;shadow=1;fontStyle=1;fontFamily=Helvetica;fontSize=15;" vertex="1" parent="1">
          <mxGeometry x="600" y="620" width="120" height="150" as="geometry" />
        </mxCell>
        <mxCell id="_okTCba526bZoAkwn3fd-244" value="" style="edgeStyle=elbowEdgeStyle;elbow=vertical;rounded=0;fontColor=#000000;endArrow=none;endFill=0;strokeWidth=8;strokeColor=#23445D;exitX=0.5;exitY=1;exitDx=0;exitDy=0;entryX=0;entryY=0.5;entryDx=0;entryDy=0;" edge="1" parent="1" target="_okTCba526bZoAkwn3fd-243">
          <mxGeometry width="100" height="100" relative="1" as="geometry">
            <mxPoint x="298.99999999999955" y="290" as="sourcePoint" />
            <mxPoint x="939" y="400" as="targetPoint" />
            <Array as="points">
              <mxPoint x="460" y="698" />
              <mxPoint x="549" y="340" />
            </Array>
          </mxGeometry>
        </mxCell>
        <mxCell id="_okTCba526bZoAkwn3fd-246" value="&lt;ul style=&quot;font-size: 18px;&quot;&gt;&lt;li style=&quot;font-size: 18px;&quot;&gt;Add, edit, remove&lt;/li&gt;&lt;li style=&quot;font-size: 18px;&quot;&gt;Order handover&lt;br style=&quot;font-size: 18px;&quot;&gt;&lt;/li&gt;&lt;li style=&quot;font-size: 18px;&quot;&gt;Manage order of shiper&lt;/li&gt;&lt;/ul&gt;" style="text;html=1;strokeColor=none;fillColor=none;align=left;verticalAlign=middle;whiteSpace=wrap;rounded=0;fontFamily=Helvetica;fontSize=18;" vertex="1" parent="1">
          <mxGeometry x="-190" y="578" width="240" height="20" as="geometry" />
        </mxCell>
        <mxCell id="_okTCba526bZoAkwn3fd-247" value="&lt;ul style=&quot;font-size: 18px;&quot;&gt;&lt;li style=&quot;font-size: 18px;&quot;&gt;Add, edit, remove, update status&lt;/li&gt;&lt;li style=&quot;font-size: 18px;&quot;&gt;Tracking order&lt;/li&gt;&lt;li style=&quot;font-size: 18px;&quot;&gt;Print bill of lading, export order&lt;/li&gt;&lt;/ul&gt;" style="text;html=1;strokeColor=none;fillColor=none;align=left;verticalAlign=middle;whiteSpace=wrap;rounded=0;fontFamily=Helvetica;fontSize=18;" vertex="1" parent="1">
          <mxGeometry x="295" y="498" width="290" height="20" as="geometry" />
        </mxCell>
        <mxCell id="_okTCba526bZoAkwn3fd-250" value="&lt;ul style=&quot;font-size: 18px;&quot;&gt;&lt;li style=&quot;font-size: 18px;&quot;&gt;Add, edit, remove&lt;/li&gt;&lt;li style=&quot;font-size: 18px;&quot;&gt;Manage payment for partner&lt;/li&gt;&lt;/ul&gt;" style="text;html=1;strokeColor=none;fillColor=none;align=left;verticalAlign=middle;whiteSpace=wrap;rounded=0;fontFamily=Helvetica;fontSize=18;" vertex="1" parent="1">
          <mxGeometry x="-190" y="413" width="300" height="20" as="geometry" />
        </mxCell>
        <mxCell id="_okTCba526bZoAkwn3fd-251" value="&lt;ul style=&quot;font-size: 18px;&quot;&gt;&lt;li style=&quot;font-size: 18px;&quot;&gt;Finance, partner, order&lt;/li&gt;&lt;li style=&quot;font-size: 18px;&quot;&gt;Print, export&lt;/li&gt;&lt;/ul&gt;" style="text;html=1;strokeColor=none;fillColor=none;align=left;verticalAlign=middle;whiteSpace=wrap;rounded=0;fontFamily=Helvetica;fontSize=18;" vertex="1" parent="1">
          <mxGeometry x="540" y="800" width="251" height="20" as="geometry" />
        </mxCell>
        <mxCell id="_okTCba526bZoAkwn3fd-252" value="PARTNER" style="whiteSpace=wrap;rounded=1;fillColor=#F2931E;strokeColor=none;shadow=1;fontColor=#FFFFFF;fontStyle=1;fontSize=20;" vertex="1" parent="1">
          <mxGeometry x="1030" y="180" width="280" height="60" as="geometry" />
        </mxCell>
        <mxCell id="_okTCba526bZoAkwn3fd-253" value="" style="edgeStyle=elbowEdgeStyle;elbow=vertical;rounded=0;fontColor=#000000;endArrow=none;endFill=0;strokeWidth=8;strokeColor=#23445D;entryX=1;entryY=0.5;entryDx=0;entryDy=0;exitX=0.5;exitY=1;exitDx=0;exitDy=0;" edge="1" parent="1" source="_okTCba526bZoAkwn3fd-261" target="_okTCba526bZoAkwn3fd-243">
          <mxGeometry width="100" height="100" relative="1" as="geometry">
            <mxPoint x="1070" y="300" as="sourcePoint" />
            <mxPoint x="689" y="640" as="targetPoint" />
            <Array as="points">
              <mxPoint x="880" y="698" />
              <mxPoint x="940" y="440" />
              <mxPoint x="1100" y="568" />
            </Array>
          </mxGeometry>
        </mxCell>
        <mxCell id="_okTCba526bZoAkwn3fd-255" value="&lt;ul style=&quot;font-size: 18px;&quot;&gt;&lt;li style=&quot;font-size: 18px;&quot;&gt;Add, edit, remove&lt;/li&gt;&lt;li style=&quot;font-size: 18px;&quot;&gt;Tracking order&lt;/li&gt;&lt;li style=&quot;font-size: 18px;&quot;&gt;Print bill of lading, export order&lt;/li&gt;&lt;/ul&gt;" style="text;html=1;strokeColor=none;fillColor=none;align=left;verticalAlign=middle;whiteSpace=wrap;rounded=0;fontFamily=Helvetica;fontSize=18;" vertex="1" parent="1">
          <mxGeometry x="670" y="330" width="300" height="20" as="geometry" />
        </mxCell>
        <mxCell id="_okTCba526bZoAkwn3fd-256" value="" style="edgeStyle=elbowEdgeStyle;elbow=vertical;rounded=0;fontColor=#000000;endArrow=none;endFill=0;strokeWidth=8;strokeColor=#23445D;entryX=0.5;entryY=0;entryDx=0;entryDy=0;exitX=0;exitY=0.5;exitDx=0;exitDy=0;" edge="1" parent="1" source="_okTCba526bZoAkwn3fd-261" target="_okTCba526bZoAkwn3fd-239">
          <mxGeometry width="100" height="100" relative="1" as="geometry">
            <mxPoint x="940" y="300" as="sourcePoint" />
            <mxPoint x="799.9999999999995" y="480.0000000000002" as="targetPoint" />
            <Array as="points">
              <mxPoint x="670" y="300" />
            </Array>
          </mxGeometry>
        </mxCell>
        <mxCell id="_okTCba526bZoAkwn3fd-258" value="SHIPER" style="whiteSpace=wrap;rounded=1;fillColor=#F2931E;strokeColor=none;shadow=1;fontColor=#FFFFFF;fontStyle=1;fontSize=20;" vertex="1" parent="1">
          <mxGeometry x="1940" y="180" width="280" height="60" as="geometry" />
        </mxCell>
        <mxCell id="_okTCba526bZoAkwn3fd-259" value="&lt;b style=&quot;font-size: 16px;&quot;&gt;CUSTOMER&lt;/b&gt;" style="rounded=1;whiteSpace=wrap;html=1;fontFamily=Helvetica;fontSize=16;labelBackgroundColor=none;fillColor=#B0B0B0;" vertex="1" parent="1">
          <mxGeometry x="1210" y="270" width="180" height="60" as="geometry" />
        </mxCell>
        <mxCell id="_okTCba526bZoAkwn3fd-261" value="&lt;b&gt;ENTERPISE&lt;/b&gt;" style="rounded=1;whiteSpace=wrap;html=1;fontFamily=Helvetica;fontSize=16;labelBackgroundColor=none;fillColor=#B0B0B0;" vertex="1" parent="1">
          <mxGeometry x="950" y="270" width="180" height="60" as="geometry" />
        </mxCell>
        <mxCell id="_okTCba526bZoAkwn3fd-262" value="" style="edgeStyle=elbowEdgeStyle;elbow=vertical;rounded=0;fontColor=#000000;endArrow=none;endFill=0;strokeWidth=8;strokeColor=#23445D;entryX=1;entryY=0.5;entryDx=0;entryDy=0;exitX=0.5;exitY=1;exitDx=0;exitDy=0;" edge="1" parent="1" source="_okTCba526bZoAkwn3fd-252" target="_okTCba526bZoAkwn3fd-261">
          <mxGeometry width="100" height="100" relative="1" as="geometry">
            <mxPoint x="1259.9999999999995" y="280" as="sourcePoint" />
            <mxPoint x="1009.9999999999995" y="280" as="targetPoint" />
            <Array as="points">
              <mxPoint x="1160" y="300" />
            </Array>
          </mxGeometry>
        </mxCell>
        <mxCell id="_okTCba526bZoAkwn3fd-263" value="" style="edgeStyle=elbowEdgeStyle;elbow=vertical;rounded=0;fontColor=#000000;endArrow=none;endFill=0;strokeWidth=8;strokeColor=#23445D;entryX=0;entryY=0.5;entryDx=0;entryDy=0;" edge="1" parent="1" target="_okTCba526bZoAkwn3fd-259">
          <mxGeometry width="100" height="100" relative="1" as="geometry">
            <mxPoint x="1170" y="240" as="sourcePoint" />
            <mxPoint x="1140" y="310" as="targetPoint" />
            <Array as="points">
              <mxPoint x="1180" y="300" />
            </Array>
          </mxGeometry>
        </mxCell>
        <mxCell id="_okTCba526bZoAkwn3fd-264" value="&lt;ul style=&quot;font-size: 18px&quot;&gt;&lt;li style=&quot;font-size: 18px&quot;&gt;Tracking order&lt;/li&gt;&lt;/ul&gt;" style="text;html=1;strokeColor=none;fillColor=none;align=left;verticalAlign=middle;whiteSpace=wrap;rounded=0;fontFamily=Helvetica;fontSize=18;" vertex="1" parent="1">
          <mxGeometry x="1190" y="340" width="300" height="20" as="geometry" />
        </mxCell>
        <mxCell id="_okTCba526bZoAkwn3fd-268" value="" style="edgeStyle=orthogonalEdgeStyle;rounded=0;orthogonalLoop=1;jettySize=auto;html=1;fontFamily=Helvetica;fontSize=18;" edge="1" parent="1" source="_okTCba526bZoAkwn3fd-265" target="_okTCba526bZoAkwn3fd-258">
          <mxGeometry relative="1" as="geometry" />
        </mxCell>
        <mxCell id="_okTCba526bZoAkwn3fd-265" value="&lt;ul style=&quot;font-size: 18px&quot;&gt;&lt;li style=&quot;font-size: 18px&quot;&gt;Tracking my order&lt;/li&gt;&lt;li style=&quot;font-size: 18px&quot;&gt;Update status order&lt;/li&gt;&lt;/ul&gt;" style="text;html=1;strokeColor=none;fillColor=none;align=left;verticalAlign=middle;whiteSpace=wrap;rounded=0;fontFamily=Helvetica;fontSize=18;" vertex="1" parent="1">
          <mxGeometry x="1920" y="260" width="300" height="20" as="geometry" />
        </mxCell>
      </root>
    </mxGraphModel>
  </diagram>
</mxfile>
